{"buffers":[{"uri":"scene.bin","byteLength":874120},{"byteLength":1792368,"extensions":{"EXT_meshopt_compression":{"fallback":true}}}],"asset":{"version":"2.0","generator":"gltfpack 0.17","extras":{"author":"Aditya3D (https://sketchfab.com/Adityakmaurya)","license":"CC-BY-4.0 (http://creativecommons.org/licenses/by/4.0/)","source":"https://sketchfab.com/3d-models/japanese-temple-model-d60831e128d3465a817bb8a8381ea3f1","title":"Japanese Temple Model"}},"extensionsUsed":["EXT_meshopt_compression"],"extensionsRequired":["EXT_meshopt_compression"],"bufferViews":[{"buffer":1,"byteOffset":0,"byteLength":403548,"byteStride":12,"target":34962,"extensions":{"EXT_meshopt_compression":{"buffer":0,"byteOffset":0,"byteLength":184501,"byteStride":12,"mode":"ATTRIBUTES","count":33629}}},{"buffer":1,"byteOffset":403548,"byteLength":403548,"byteStride":12,"target":34962,"extensions":{"EXT_meshopt_compression":{"buffer":0,"byteOffset":184504,"byteLength":230547,"byteStride":12,"mode":"ATTRIBUTES","count":33629}}},{"buffer":1,"byteOffset":807096,"byteLength":538064,"byteStride":16,"target":34962,"extensions":{"EXT_meshopt_compression":{"buffer":0,"byteOffset":415052,"byteLength":251864,"byteStride":16,"mode":"ATTRIBUTES","count":33629}}},{"buffer":1,"byteOffset":1345160,"byteLength":269032,"byteStride":8,"target":34962,"extensions":{"EXT_meshopt_compression":{"buffer":0,"byteOffset":666916,"byteLength":175990,"byteStride":8,"mode":"ATTRIBUTES","count":33629}}},{"buffer":1,"byteOffset":1614192,"byteLength":178176,"target":34963,"extensions":{"EXT_meshopt_compression":{"buffer":0,"byteOffset":842908,"byteLength":31210,"byteStride":2,"mode":"TRIANGLES","count":89088}}}],"accessors":[{"bufferView":0,"byteOffset":0,"componentType":5126,"count":33629,"type":"VEC3"},{"bufferView":1,"byteOffset":0,"componentType":5126,"count":33629,"type":"VEC3","min":[-10,-1.62920674e-06,-10],"max":[10,37.3800011,13.4000015]},{"bufferView":2,"byteOffset":0,"componentType":5126,"count":33629,"type":"VEC4"},{"bufferView":3,"byteOffset":0,"componentType":5126,"count":33629,"type":"VEC2"},{"bufferView":4,"byteOffset":0,"componentType":5123,"count":89088,"type":"SCALAR"}],"samplers":[{"magFilter":9729,"minFilter":9987}],"images":[{"uri":"textures/Japanese_Shrine_Mat_baseColor.png"},{"uri":"textures/Japanese_Shrine_Mat_metallicRoughness.png"},{"uri":"textures/Japanese_Shrine_Mat_normal.png"}],"textures":[{"sampler":0,"source":0},{"sampler":0,"source":1},{"sampler":0,"source":2}],"materials":[{"name":"Japanese_Shrine_Mat","pbrMetallicRoughness":{"baseColorTexture":{"index":0},"metallicRoughnessTexture":{"index":1}},"normalTexture":{"index":2},"occlusionTexture":{"index":1},"doubleSided":true}],"meshes":[{"primitives":[{"attributes":{"NORMAL":0,"POSITION":1,"TANGENT":2,"TEXCOORD_0":3},"indices":4,"material":0}]}],"nodes":[{"mesh":0}],"scenes":[{"name":"Sketchfab_Scene","nodes":[0]}],"scene":0}