{"buffers":[{"uri":"scene.bin","byteLength":2113616},{"byteLength":3504324,"extensions":{"EXT_meshopt_compression":{"fallback":true}}}],"asset":{"version":"2.0","generator":"gltfpack 0.17","extras":{"author":"minghauLoh (https://sketchfab.com/minghau)","license":"CC-BY-4.0 (http://creativecommons.org/licenses/by/4.0/)","source":"https://sketchfab.com/3d-models/vino-2205f4e69bc64df3aab03c71ab9d7492","title":"Vino"}},"extensionsUsed":["EXT_meshopt_compression","KHR_texture_transform","KHR_materials_clearcoat","KHR_materials_transmission"],"extensionsRequired":["EXT_meshopt_compression"],"bufferViews":[{"buffer":1,"byteOffset":0,"byteLength":732684,"byteStride":12,"target":34962,"extensions":{"EXT_meshopt_compression":{"buffer":0,"byteOffset":0,"byteLength":606382,"byteStride":12,"mode":"ATTRIBUTES","count":61057}}},{"buffer":1,"byteOffset":732684,"byteLength":732684,"byteStride":12,"target":34962,"extensions":{"EXT_meshopt_compression":{"buffer":0,"byteOffset":606384,"byteLength":485291,"byteStride":12,"mode":"ATTRIBUTES","count":61057}}},{"buffer":1,"byteOffset":1465368,"byteLength":976912,"byteStride":16,"target":34962,"extensions":{"EXT_meshopt_compression":{"buffer":0,"byteOffset":1091676,"byteLength":611399,"byteStride":16,"mode":"ATTRIBUTES","count":61057}}},{"buffer":1,"byteOffset":2442280,"byteLength":488456,"byteStride":8,"target":34962,"extensions":{"EXT_meshopt_compression":{"buffer":0,"byteOffset":1703076,"byteLength":301596,"byteStride":8,"mode":"ATTRIBUTES","count":61057}}},{"buffer":1,"byteOffset":2930736,"byteLength":573588,"target":34963,"extensions":{"EXT_meshopt_compression":{"buffer":0,"byteOffset":2004672,"byteLength":108943,"byteStride":2,"mode":"TRIANGLES","count":286794}}}],"accessors":[{"bufferView":0,"byteOffset":0,"componentType":5126,"count":11891,"type":"VEC3"},{"bufferView":1,"byteOffset":0,"componentType":5126,"count":11891,"type":"VEC3","min":[-0.21505934,-0.999847054,-0.717484117],"max":[0.215059444,-0.265324533,0.757645965]},{"bufferView":2,"byteOffset":0,"componentType":5126,"count":11891,"type":"VEC4"},{"bufferView":3,"byteOffset":0,"componentType":5126,"count":11891,"type":"VEC2"},{"bufferView":4,"byteOffset":0,"componentType":5123,"count":58473,"type":"SCALAR"},{"bufferView":0,"byteOffset":142692,"componentType":5126,"count":36234,"type":"VEC3"},{"bufferView":1,"byteOffset":142692,"componentType":5126,"count":36234,"type":"VEC3","min":[-0.339679688,-1.06289232,-0.816809952],"max":[0.339679688,0.0113337338,0.698142767]},{"bufferView":2,"byteOffset":190256,"componentType":5126,"count":36234,"type":"VEC4"},{"bufferView":3,"byteOffset":95128,"componentType":5126,"count":36234,"type":"VEC2"},{"bufferView":4,"byteOffset":116946,"componentType":5123,"count":172914,"type":"SCALAR"},{"bufferView":0,"byteOffset":577500,"componentType":5126,"count":3871,"type":"VEC3"},{"bufferView":1,"byteOffset":577500,"componentType":5126,"count":3871,"type":"VEC3","min":[-0.171132818,-0.877285182,-0.814545989],"max":[0.171128169,-0.294162929,0.502598464]},{"bufferView":2,"byteOffset":770000,"componentType":5126,"count":3871,"type":"VEC4"},{"bufferView":3,"byteOffset":385000,"componentType":5126,"count":3871,"type":"VEC2"},{"bufferView":4,"byteOffset":462774,"componentType":5123,"count":18984,"type":"SCALAR"},{"bufferView":0,"byteOffset":623952,"componentType":5126,"count":1711,"type":"VEC3"},{"bufferView":1,"byteOffset":623952,"componentType":5126,"count":1711,"type":"VEC3","min":[-0.168499529,-0.682959557,-0.578070164],"max":[0.168494865,-0.157516837,0.527109325]},{"bufferView":2,"byteOffset":831936,"componentType":5126,"count":1711,"type":"VEC4"},{"bufferView":3,"byteOffset":415968,"componentType":5126,"count":1711,"type":"VEC2"},{"bufferView":4,"byteOffset":500742,"componentType":5123,"count":8652,"type":"SCALAR"},{"bufferView":0,"byteOffset":644484,"componentType":5126,"count":7337,"type":"VEC3"},{"bufferView":1,"byteOffset":644484,"componentType":5126,"count":7337,"type":"VEC3","min":[-0.0551891103,-1.14953804,-0.751645982],"max":[0.0551889576,-0.742639601,0.798896611]},{"bufferView":2,"byteOffset":859312,"componentType":5126,"count":7337,"type":"VEC4"},{"bufferView":3,"byteOffset":429656,"componentType":5126,"count":7337,"type":"VEC2"},{"bufferView":4,"byteOffset":518046,"componentType":5123,"count":27726,"type":"SCALAR"},{"bufferView":0,"byteOffset":732528,"componentType":5126,"count":13,"type":"VEC3"},{"bufferView":1,"byteOffset":732528,"componentType":5126,"count":13,"type":"VEC3","min":[0.153738841,-0.725683987,0.427911341],"max":[0.203437343,-0.640148163,0.480875373]},{"bufferView":2,"byteOffset":976704,"componentType":5126,"count":13,"type":"VEC4"},{"bufferView":3,"byteOffset":488352,"componentType":5126,"count":13,"type":"VEC2"},{"bufferView":4,"byteOffset":573498,"componentType":5123,"count":45,"type":"SCALAR"}],"samplers":[{"magFilter":9729,"minFilter":9987}],"images":[{"uri":"textures/Main_Body_baseColor.jpeg"},{"uri":"textures/Main_Body_metallicRoughness.png"},{"uri":"textures/Main_Body_normal.png"},{"uri":"textures/Main_Body_clearcoat.png"},{"uri":"textures/Main_Body_clearcoat_roughness.png"},{"uri":"textures/Main_Body_clearcoat_normal.png"},{"uri":"textures/SmallParts_baseColor.jpeg"},{"uri":"textures/SmallParts_metallicRoughness.png"},{"uri":"textures/SmallParts_normal.png"},{"uri":"textures/Lamp__Glass_baseColor.jpeg"},{"uri":"textures/Lamp__Glass_metallicRoughness.png"},{"uri":"textures/Lamp__Glass_normal.png"},{"uri":"textures/Glass_metallicRoughness.png"},{"uri":"textures/Tire_baseColor.jpeg"},{"uri":"textures/Tire_metallicRoughness.png"},{"uri":"textures/Tire_normal.png"},{"uri":"textures/Sticker_baseColor.png"},{"uri":"textures/Sticker_metallicRoughness.png"},{"uri":"textures/Sticker_normal.png"}],"textures":[{"sampler":0,"source":0},{"sampler":0,"source":1},{"sampler":0,"source":2},{"sampler":0,"source":3},{"sampler":0,"source":4},{"sampler":0,"source":5},{"sampler":0,"source":6},{"sampler":0,"source":7},{"sampler":0,"source":8},{"sampler":0,"source":9},{"sampler":0,"source":10},{"sampler":0,"source":11},{"sampler":0,"source":12},{"sampler":0,"source":13},{"sampler":0,"source":14},{"sampler":0,"source":15},{"sampler":0,"source":16},{"sampler":0,"source":17},{"sampler":0,"source":18}],"materials":[{"name":"Main_Body","pbrMetallicRoughness":{"baseColorTexture":{"index":0},"metallicRoughnessTexture":{"index":1}},"normalTexture":{"index":2},"occlusionTexture":{"index":1},"extensions":{"KHR_materials_clearcoat":{"clearcoatTexture":{"index":3},"clearcoatRoughnessTexture":{"index":4},"clearcoatNormalTexture":{"index":5,"scale":0.214383751,"extensions":{"KHR_texture_transform":{"offset":[0,0],"scale":[50,50]}}},"clearcoatFactor":1,"clearcoatRoughnessFactor":1}}},{"name":"SmallParts","pbrMetallicRoughness":{"baseColorTexture":{"index":6},"metallicRoughnessTexture":{"index":7}},"normalTexture":{"index":8},"occlusionTexture":{"index":7}},{"name":"Lamp__Glass","pbrMetallicRoughness":{"baseColorTexture":{"index":9},"metallicRoughnessTexture":{"index":10}},"normalTexture":{"index":11},"doubleSided":true},{"name":"Glass","pbrMetallicRoughness":{"baseColorFactor":[1,1,1,0.25],"baseColorTexture":{"index":9},"metallicRoughnessTexture":{"index":12}},"normalTexture":{"index":11},"alphaMode":"BLEND","extensions":{"KHR_materials_transmission":{"transmissionFactor":0.993059814}}},{"name":"Tire","pbrMetallicRoughness":{"baseColorTexture":{"index":13},"metallicRoughnessTexture":{"index":14}},"normalTexture":{"index":15},"occlusionTexture":{"index":14}},{"name":"Sticker","pbrMetallicRoughness":{"baseColorTexture":{"index":16},"metallicFactor":0,"metallicRoughnessTexture":{"index":17}},"normalTexture":{"index":18},"alphaMode":"MASK","alphaCutoff":0.153370947}],"meshes":[{"primitives":[{"attributes":{"NORMAL":0,"POSITION":1,"TANGENT":2,"TEXCOORD_0":3},"indices":4,"material":0},{"attributes":{"NORMAL":5,"POSITION":6,"TANGENT":7,"TEXCOORD_0":8},"indices":9,"material":1},{"attributes":{"NORMAL":10,"POSITION":11,"TANGENT":12,"TEXCOORD_0":13},"indices":14,"material":2},{"attributes":{"NORMAL":15,"POSITION":16,"TANGENT":17,"TEXCOORD_0":18},"indices":19,"material":3},{"attributes":{"NORMAL":20,"POSITION":21,"TANGENT":22,"TEXCOORD_0":23},"indices":24,"material":4},{"attributes":{"NORMAL":25,"POSITION":26,"TANGENT":27,"TEXCOORD_0":28},"indices":29,"material":5}]}],"nodes":[{"mesh":0}],"scenes":[{"name":"Sketchfab_Scene","nodes":[0]}],"scene":0}