{
  "accessors": [
    {
      "bufferView": 2,
      "componentType": 5126,
      "count": 65532,
      "max": [
        0.74526405334472656,
        16.917566299438477,
        45.069740295410156
      ],
      "min": [
        -5.3595027923583984,
        -13.432628631591797,
        -3.468714714050293
      ],
      "type": "VEC3"
    },
    {
      "bufferView": 2,
      "byteOffset": 786384,
      "componentType": 5126,
      "count": 65532,
      "max": [
        0.99999982118606567,
        0.9999968409538269,
        0.98724645376205444
      ],
      "min": [
        -1,
        -0.99999475479125977,
        -0.9999459981918335
      ],
      "type": "VEC3"
    },
    {
      "bufferView": 3,
      "componentType": 5126,
      "count": 65532,
      "max": [
        1,
        0.97098666429519653,
        0.99438333511352539,
        -1
      ],
      "min": [
        -1,
        -0.73675370216369629,
        -0.99906361103057861,
        -1
      ],
      "type": "VEC4"
    },
    {
      "bufferView": 1,
      "componentType": 5126,
      "count": 65532,
      "max": [
        0.98441100120544434,
        0.22241200506687164
      ],
      "min": [
        0.0086679998785257339,
        0.0021969999652355909
      ],
      "type": "VEC2"
    },
    {
      "bufferView": 0,
      "componentType": 5125,
      "count": 341391,
      "max": [
        65531
      ],
      "min": [
        0
      ],
      "type": "SCALAR"
    },
    {
      "bufferView": 2,
      "byteOffset": 1572768,
      "componentType": 5126,
      "count": 65533,
      "max": [
        0.70500373840332031,
        16.917566299438477,
        45.069740295410156
      ],
      "min": [
        -5.3595027923583984,
        -13.432628631591797,
        -3.4469509124755859
      ],
      "type": "VEC3"
    },
    {
      "bufferView": 2,
      "byteOffset": 2359164,
      "componentType": 5126,
      "count": 65533,
      "max": [
        0.99999994039535522,
        0.99985587596893311,
        0.99994593858718872
      ],
      "min": [
        -1,
        -0.99996978044509888,
        -0.98433303833007812
      ],
      "type": "VEC3"
    },
    {
      "bufferView": 3,
      "byteOffset": 1048512,
      "componentType": 5126,
      "count": 65533,
      "max": [
        1,
        0.98706704378128052,
        0.9968152642250061,
        1
      ],
      "min": [
        -1,
        -0.85665357112884521,
        -0.99924647808074951,
        -1
      ],
      "type": "VEC4"
    },
    {
      "bufferView": 1,
      "byteOffset": 524256,
      "componentType": 5126,
      "count": 65533,
      "max": [
        0.99780100584030151,
        0.17460000514984131
      ],
      "min": [
        0.0012209999840706587,
        0.0021969999652355909
      ],
      "type": "VEC2"
    },
    {
      "bufferView": 0,
      "byteOffset": 1365564,
      "componentType": 5125,
      "count": 319596,
      "max": [
        65532
      ],
      "min": [
        0
      ],
      "type": "SCALAR"
    },
    {
      "bufferView": 2,
      "byteOffset": 3145560,
      "componentType": 5126,
      "count": 13257,
      "max": [
        0.52564430236816406,
        16.855854034423828,
        45.069740295410156
      ],
      "min": [
        -5.3595027923583984,
        -13.346381187438965,
        -3.468714714050293
      ],
      "type": "VEC3"
    },
    {
      "bufferView": 2,
      "byteOffset": 3304644,
      "componentType": 5126,
      "count": 13257,
      "max": [
        0.9999992847442627,
        0.99970728158950806,
        0.97983849048614502
      ],
      "min": [
        -1,
        -0.99997246265411377,
        -0.99273049831390381
      ],
      "type": "VEC3"
    },
    {
      "bufferView": 3,
      "byteOffset": 2097040,
      "componentType": 5126,
      "count": 13257,
      "max": [
        1,
        0.97775900363922119,
        0.99438285827636719,
        -1
      ],
      "min": [
        -0.99962353706359863,
        -0.99987024068832397,
        -0.99931913614273071,
        -1
      ],
      "type": "VEC4"
    },
    {
      "bufferView": 1,
      "byteOffset": 1048520,
      "componentType": 5126,
      "count": 13257,
      "max": [
        0.9978029727935791,
        0.20400999486446381
      ],
      "min": [
        0.0012209999840706587,
        0.0021969999652355909
      ],
      "type": "VEC2"
    },
    {
      "bufferView": 0,
      "byteOffset": 2643948,
      "componentType": 5125,
      "count": 32325,
      "max": [
        13256
      ],
      "min": [
        0
      ],
      "type": "SCALAR"
    }
  ],
  "asset": {
    "extras": {
      "author": "WizardofAz (https://sketchfab.com/azadbal)",
      "license": "CC-BY-4.0 (http://creativecommons.org/licenses/by/4.0/)",
      "source": "https://sketchfab.com/3d-models/mars-curiosity-rock-sol-2315-7d547e244889418fafd4e4eb20d4fbce",
      "title": "Mars Curiosity Rock - Sol 2315"
    },
    "generator": "Sketchfab-4.37.1",
    "version": "2.0"
  },
  "bufferViews": [
    {
      "buffer": 0,
      "byteLength": 2773248,
      "byteOffset": 0,
      "name": "floatBufferViews",
      "target": 34963
    },
    {
      "buffer": 0,
      "byteLength": 1154576,
      "byteOffset": 2773248,
      "byteStride": 8,
      "name": "floatBufferViews",
      "target": 34962
    },
    {
      "buffer": 0,
      "byteLength": 3463728,
      "byteOffset": 3927824,
      "byteStride": 12,
      "name": "floatBufferViews",
      "target": 34962
    },
    {
      "buffer": 0,
      "byteLength": 2309152,
      "byteOffset": 7391552,
      "byteStride": 16,
      "name": "floatBufferViews",
      "target": 34962
    }
  ],
  "buffers": [
    {
      "byteLength": 9700704,
      "uri": "scene.bin"
    }
  ],
  "extensionsUsed": [
    "KHR_materials_unlit"
  ],
  "images": [
    {
      "uri": "textures/model_Material_u1_v1_baseColor.jpeg"
    }
  ],
  "materials": [
    {
      "doubleSided": true,
      "emissiveFactor": [
        0,
        0,
        0
      ],
      "extensions": {
        "KHR_materials_unlit": {}
      },
      "name": "model_Material_u1_v1",
      "pbrMetallicRoughness": {
        "baseColorFactor": [
          1,
          1,
          1,
          1
        ],
        "baseColorTexture": {
          "index": 0,
          "texCoord": 0
        },
        "metallicFactor": 0,
        "roughnessFactor": 1
      }
    }
  ],
  "meshes": [
    {
      "primitives": [
        {
          "attributes": {
            "NORMAL": 1,
            "POSITION": 0,
            "TANGENT": 2,
            "TEXCOORD_0": 3
          },
          "indices": 4,
          "material": 0,
          "mode": 4
        }
      ]
    },
    {
      "primitives": [
        {
          "attributes": {
            "NORMAL": 6,
            "POSITION": 5,
            "TANGENT": 7,
            "TEXCOORD_0": 8
          },
          "indices": 9,
          "material": 0,
          "mode": 4
        }
      ]
    },
    {
      "primitives": [
        {
          "attributes": {
            "NORMAL": 11,
            "POSITION": 10,
            "TANGENT": 12,
            "TEXCOORD_0": 13
          },
          "indices": 14,
          "material": 0,
          "mode": 4
        }
      ]
    }
  ],
  "nodes": [
    {
      "children": [
        1
      ],
      "name": "RootNode (gltf orientation matrix)",
      "rotation": [
        -0.70710678118654746,
        -0,
        -0,
        0.70710678118654757
      ]
    },
    {
      "children": [
        2
      ],
      "matrix": [
        0,
        0,
        1,
        0,
        1,
        0,
        0,
        0,
        0,
        1,
        0,
        0,
        -4.0496249198913574,
        -19.057973861694336,
        23.107599258422852,
        1
      ],
      "name": "RootNode (model correction matrix)"
    },
    {
      "children": [
        3,
        4,
        5
      ],
      "name": "model.obj.cleaner.materialmerger.gles"
    },
    {
      "mesh": 0,
      "name": ""
    },
    {
      "mesh": 1,
      "name": ""
    },
    {
      "mesh": 2,
      "name": ""
    }
  ],
  "samplers": [
    {
      "magFilter": 9729,
      "minFilter": 9987,
      "wrapS": 10497,
      "wrapT": 10497
    }
  ],
  "scene": 0,
  "scenes": [
    {
      "name": "OSG_Scene",
      "nodes": [
        0
      ]
    }
  ],
  "textures": [
    {
      "sampler": 0,
      "source": 0
    }
  ]
}

