{"buffers":[{"uri":"scene.bin","byteLength":240060},{"byteLength":382148,"extensions":{"EXT_meshopt_compression":{"fallback":true}}}],"asset":{"version":"2.0","generator":"gltfpack 0.17","extras":{"author":"Art by Kidd (https://sketchfab.com/kid.in.the.dark)","license":"CC-BY-4.0 (http://creativecommons.org/licenses/by/4.0/)","source":"https://sketchfab.com/models/a5ea0bf252884fceabf1007e8050f3fc","title":"\" The Neko Stop-off \" - Hand-painted Diorama"}},"extensionsUsed":["EXT_meshopt_compression"],"extensionsRequired":["EXT_meshopt_compression"],"bufferViews":[{"buffer":1,"byteOffset":0,"byteLength":125832,"byteStride":12,"target":34962,"extensions":{"EXT_meshopt_compression":{"buffer":0,"byteOffset":0,"byteLength":82862,"byteStride":12,"mode":"ATTRIBUTES","count":10486}}},{"buffer":1,"byteOffset":125832,"byteLength":125832,"byteStride":12,"target":34962,"extensions":{"EXT_meshopt_compression":{"buffer":0,"byteOffset":82864,"byteLength":87266,"byteStride":12,"mode":"ATTRIBUTES","count":10486}}},{"buffer":1,"byteOffset":251664,"byteLength":83888,"byteStride":8,"target":34962,"extensions":{"EXT_meshopt_compression":{"buffer":0,"byteOffset":170132,"byteLength":60906,"byteStride":8,"mode":"ATTRIBUTES","count":10486}}},{"buffer":1,"byteOffset":335552,"byteLength":44184,"target":34963,"extensions":{"EXT_meshopt_compression":{"buffer":0,"byteOffset":231040,"byteLength":7642,"byteStride":2,"mode":"TRIANGLES","count":22092}}},{"buffer":1,"byteOffset":379736,"byteLength":804,"extensions":{"EXT_meshopt_compression":{"buffer":0,"byteOffset":238684,"byteLength":573,"byteStride":4,"mode":"ATTRIBUTES","count":201}}},{"buffer":1,"byteOffset":380540,"byteLength":1608,"extensions":{"EXT_meshopt_compression":{"buffer":0,"byteOffset":239260,"byteLength":800,"byteStride":8,"mode":"ATTRIBUTES","filter":"QUATERNION","count":201}}}],"accessors":[{"bufferView":0,"byteOffset":0,"componentType":5126,"count":2446,"type":"VEC3"},{"bufferView":1,"byteOffset":0,"componentType":5126,"count":2446,"type":"VEC3","min":[-322.624725,-33.983078,-269.840057],"max":[259.582581,61.4374161,270.665161]},{"bufferView":2,"byteOffset":0,"componentType":5126,"count":2446,"type":"VEC2"},{"bufferView":3,"byteOffset":0,"componentType":5123,"count":5463,"type":"SCALAR"},{"bufferView":0,"byteOffset":29352,"componentType":5126,"count":2259,"type":"VEC3"},{"bufferView":1,"byteOffset":29352,"componentType":5126,"count":2259,"type":"VEC3","min":[-50.6053429,-2.31668091,-247.498978],"max":[247.136124,238.791229,156.357071]},{"bufferView":2,"byteOffset":19568,"componentType":5126,"count":2259,"type":"VEC2"},{"bufferView":3,"byteOffset":10926,"componentType":5123,"count":4923,"type":"SCALAR"},{"bufferView":0,"byteOffset":56460,"componentType":5126,"count":2732,"type":"VEC3"},{"bufferView":1,"byteOffset":56460,"componentType":5126,"count":2732,"type":"VEC3","min":[-150.673615,-2.92660141,-196.089508],"max":[220.618164,233.024139,160.924896]},{"bufferView":2,"byteOffset":37640,"componentType":5126,"count":2732,"type":"VEC2"},{"bufferView":3,"byteOffset":20772,"componentType":5123,"count":4380,"type":"SCALAR"},{"bufferView":0,"byteOffset":89244,"componentType":5126,"count":2993,"type":"VEC3"},{"bufferView":1,"byteOffset":89244,"componentType":5126,"count":2993,"type":"VEC3","min":[-132.94278,-0.178029314,-243.494751],"max":[117.54306,426.860931,5.72057343]},{"bufferView":2,"byteOffset":59496,"componentType":5126,"count":2993,"type":"VEC2"},{"bufferView":3,"byteOffset":29532,"componentType":5123,"count":7200,"type":"SCALAR"},{"bufferView":0,"byteOffset":125160,"componentType":5126,"count":40,"type":"VEC3"},{"bufferView":1,"byteOffset":125160,"componentType":5126,"count":40,"type":"VEC3","min":[-122.401306,15.5567627,-173.913177],"max":[188.048645,189.23877,-127.251251]},{"bufferView":2,"byteOffset":83440,"componentType":5126,"count":40,"type":"VEC2"},{"bufferView":3,"byteOffset":43932,"componentType":5123,"count":102,"type":"SCALAR"},{"bufferView":0,"byteOffset":125640,"componentType":5126,"count":16,"type":"VEC3"},{"bufferView":1,"byteOffset":125640,"componentType":5126,"count":16,"type":"VEC3","min":[-23.028513,86.4449692,413.557098],"max":[-4.87057877,86.4449692,431.458588]},{"bufferView":2,"byteOffset":83760,"componentType":5126,"count":16,"type":"VEC2"},{"bufferView":3,"byteOffset":44136,"componentType":5123,"count":24,"type":"SCALAR"},{"bufferView":4,"byteOffset":0,"componentType":5126,"count":201,"type":"SCALAR","min":[0],"max":[6.66666698]},{"bufferView":5,"byteOffset":0,"componentType":5122,"count":201,"type":"VEC4","normalized":true}],"samplers":[{"magFilter":9729,"minFilter":9987}],"images":[{"uri":"textures/miniHouse_Part3_emissive.png"},{"uri":"textures/miniHouse_Part3_baseColor.png"},{"uri":"textures/House_Part_01_baseColor.png"},{"uri":"textures/House_Part_01_emissive.png"},{"uri":"textures/miniHouse_Part4_emissive.png"},{"uri":"textures/miniHouse_Part4_baseColor.png"},{"uri":"textures/House_Part_01_alpha_baseColor.png"},{"uri":"textures/House_Part_01_alpha_emissive.png"},{"uri":"textures/House_Part_02_emissive.png"},{"uri":"textures/House_Part_02_baseColor.png"}],"textures":[{"sampler":0,"source":0},{"sampler":0,"source":1},{"sampler":0,"source":2},{"sampler":0,"source":3},{"sampler":0,"source":4},{"sampler":0,"source":5},{"sampler":0,"source":6},{"sampler":0,"source":7},{"sampler":0,"source":8},{"sampler":0,"source":9}],"materials":[{"name":"miniHouse_Part4","pbrMetallicRoughness":{"baseColorTexture":{"index":5},"metallicFactor":0,"roughnessFactor":0.600000024},"emissiveTexture":{"index":4},"emissiveFactor":[1,1,1],"doubleSided":true},{"name":"miniHouse_Part3","pbrMetallicRoughness":{"baseColorTexture":{"index":1},"metallicFactor":0,"roughnessFactor":0.600000024},"emissiveTexture":{"index":0},"emissiveFactor":[0.400000006,0.400000006,0.400000006],"doubleSided":true},{"name":"House_Part_02","pbrMetallicRoughness":{"baseColorTexture":{"index":9},"metallicFactor":0,"roughnessFactor":0.600000024},"emissiveTexture":{"index":8},"emissiveFactor":[0.400000006,0.400000006,0.400000006],"doubleSided":true},{"name":"House_Part_01","pbrMetallicRoughness":{"baseColorTexture":{"index":2},"metallicFactor":0,"roughnessFactor":0.600000024},"emissiveTexture":{"index":3},"emissiveFactor":[0.400000006,0.400000006,0.400000006],"alphaMode":"BLEND","doubleSided":true},{"name":"House_Part_01_alpha","pbrMetallicRoughness":{"baseColorTexture":{"index":6},"metallicFactor":0,"roughnessFactor":0.600000024},"emissiveTexture":{"index":7},"emissiveFactor":[0.400000006,0.400000006,0.400000006],"alphaMode":"BLEND","doubleSided":true}],"meshes":[{"primitives":[{"attributes":{"NORMAL":0,"POSITION":1,"TEXCOORD_0":2},"indices":3,"material":0},{"attributes":{"NORMAL":4,"POSITION":5,"TEXCOORD_0":6},"indices":7,"material":1},{"attributes":{"NORMAL":8,"POSITION":9,"TEXCOORD_0":10},"indices":11,"material":2},{"attributes":{"NORMAL":12,"POSITION":13,"TEXCOORD_0":14},"indices":15,"material":3},{"attributes":{"NORMAL":16,"POSITION":17,"TEXCOORD_0":18},"indices":19,"material":4}]},{"primitives":[{"attributes":{"NORMAL":20,"POSITION":21,"TEXCOORD_0":22},"indices":23,"material":4}]}],"animations":[{"name":"Take 001","samplers":[{"input":24,"output":25}],"channels":[{"sampler":0,"target":{"node":7,"path":"rotation"}}]}],"nodes":[{"mesh":0},{"mesh":1},{"name":"RootNode (gltf orientation matrix)","rotation":[-0.707106769,-0,-0,0.707106769],"children":[3]},{"name":"RootNode (model correction matrix)","children":[4]},{"name":"miniHouse_FBX.FBX","matrix":[1,0,0,0,0,0,1,0,0,-1,0,0,0,0,0,1],"children":[5]},{"children":[6]},{"name":"RootNode","children":[7]},{"name":"miniHouse_Part1_spinningFan","translation":[-7.69984436,422.548157,-172.05513],"rotation":[-0.674379766,-0.212631062,0.212631062,0.674379766],"scale":[2.04964757,2.04964733,2.04964757],"children":[8]},{"matrix":[1,0,-0,0,0,1,0,0,0,0,1,0,13.9495487,-86.4449692,-422.507812,1],"children":[9]},{"name":"miniHouse_Part1_spinningFan_House Part 01_alpha_0","children":[1]}],"scenes":[{"name":"OSG_Scene","nodes":[0,2]}],"scene":0}