{"buffers":[{"uri":"scene.bin","byteLength":3370652},{"byteLength":6186408,"extensions":{"EXT_meshopt_compression":{"fallback":true}}}],"asset":{"version":"2.0","generator":"gltfpack 0.17","extras":{"author":"LamedeFeu (https://sketchfab.com/NVOTW)","license":"CC-BY-4.0 (http://creativecommons.org/licenses/by/4.0/)","source":"https://sketchfab.com/3d-models/wooden-stylised-carriage-ccac9ded5666488c9355d2ed3575fae9","title":"Wooden Stylised Carriage"}},"extensionsUsed":["EXT_meshopt_compression"],"extensionsRequired":["EXT_meshopt_compression"],"bufferViews":[{"buffer":1,"byteOffset":0,"byteLength":1155516,"byteStride":12,"target":34962,"extensions":{"EXT_meshopt_compression":{"buffer":0,"byteOffset":0,"byteLength":987692,"byteStride":12,"mode":"ATTRIBUTES","count":96293}}},{"buffer":1,"byteOffset":1155516,"byteLength":1155516,"byteStride":12,"target":34962,"extensions":{"EXT_meshopt_compression":{"buffer":0,"byteOffset":987692,"byteLength":736097,"byteStride":12,"mode":"ATTRIBUTES","count":96293}}},{"buffer":1,"byteOffset":2311032,"byteLength":1540688,"byteStride":16,"target":34962,"extensions":{"EXT_meshopt_compression":{"buffer":0,"byteOffset":1723792,"byteLength":1006763,"byteStride":16,"mode":"ATTRIBUTES","count":96293}}},{"buffer":1,"byteOffset":3851720,"byteLength":770344,"byteStride":8,"target":34962,"extensions":{"EXT_meshopt_compression":{"buffer":0,"byteOffset":2730556,"byteLength":493203,"byteStride":8,"mode":"ATTRIBUTES","count":96293}}},{"buffer":1,"byteOffset":4622064,"byteLength":1564344,"target":34963,"extensions":{"EXT_meshopt_compression":{"buffer":0,"byteOffset":3223760,"byteLength":146892,"byteStride":4,"mode":"TRIANGLES","count":391086}}}],"accessors":[{"bufferView":0,"byteOffset":0,"componentType":5126,"count":96293,"type":"VEC3"},{"bufferView":1,"byteOffset":0,"componentType":5126,"count":96293,"type":"VEC3","min":[-0.998769939,0.0370990559,-2.64054346],"max":[1.18506444,3.14133763,4.83877945]},{"bufferView":2,"byteOffset":0,"componentType":5126,"count":96293,"type":"VEC4"},{"bufferView":3,"byteOffset":0,"componentType":5126,"count":96293,"type":"VEC2"},{"bufferView":4,"byteOffset":0,"componentType":5125,"count":391086,"type":"SCALAR"}],"samplers":[{"magFilter":9729,"minFilter":9987}],"images":[{"uri":"textures/lambert6_baseColor.png"},{"uri":"textures/lambert6_metallicRoughness.png"},{"uri":"textures/lambert6_normal.png"}],"textures":[{"sampler":0,"source":0},{"sampler":0,"source":1},{"sampler":0,"source":2}],"materials":[{"name":"lambert6","pbrMetallicRoughness":{"baseColorTexture":{"index":0},"metallicRoughnessTexture":{"index":1}},"normalTexture":{"index":2},"doubleSided":true}],"meshes":[{"primitives":[{"attributes":{"NORMAL":0,"POSITION":1,"TANGENT":2,"TEXCOORD_0":3},"indices":4,"material":0}]}],"nodes":[{"mesh":0}],"scenes":[{"name":"Sketchfab_Scene","nodes":[0]}],"scene":0}