{
  "accessors": [
    {
      "bufferView": 2,
      "componentType": 5126,
      "count": 1451,
      "max": [
        12.990018844604492,
        23.809307098388672,
        4.4371418952941895
      ],
      "min": [
        -10.506391525268555,
        8.046412467956543,
        -5.9049577713012695
      ],
      "type": "VEC3"
    },
    {
      "bufferView": 2,
      "byteOffset": 17412,
      "componentType": 5126,
      "count": 1451,
      "max": [
        0.9993818998336792,
        0.9997439980506897,
        0.9988709092140198
      ],
      "min": [
        -0.9996006488800049,
        -0.8651818633079529,
        -0.9974235892295837
      ],
      "type": "VEC3"
    },
    {
      "bufferView": 3,
      "componentType": 5126,
      "count": 1451,
      "max": [
        0.9997968077659607,
        0.9983944892883301,
        0.9984351396560669,
        1.0
      ],
      "min": [
        -0.9999023675918579,
        -0.9982823133468628,
        -0.997155487537384,
        1.0
      ],
      "type": "VEC4"
    },
    {
      "bufferView": 1,
      "componentType": 5126,
      "count": 1451,
      "max": [
        0.9824150204658508,
        0.9832329750061035
      ],
      "min": [
        0.018415000289678574,
        0.013125999830663204
      ],
      "type": "VEC2"
    },
    {
      "bufferView": 0,
      "componentType": 5125,
      "count": 6762,
      "type": "SCALAR"
    },
    {
      "bufferView": 2,
      "byteOffset": 34824,
      "componentType": 5126,
      "count": 29284,
      "max": [
        14.506935119628906,
        16.466066360473633,
        6.496359825134277
      ],
      "min": [
        2.0281670093536377,
        -0.06851799786090851,
        -8.759710311889648
      ],
      "type": "VEC3"
    },
    {
      "bufferView": 2,
      "byteOffset": 386232,
      "componentType": 5126,
      "count": 29284,
      "max": [
        0.9999672174453735,
        0.9999991059303284,
        0.9998455047607422
      ],
      "min": [
        -0.9999988675117493,
        -0.9999991059303284,
        -0.9997657537460327
      ],
      "type": "VEC3"
    },
    {
      "bufferView": 3,
      "byteOffset": 23216,
      "componentType": 5126,
      "count": 29284,
      "max": [
        0.9999545216560364,
        1.0,
        0.9999996423721313,
        1.0
      ],
      "min": [
        -0.9999849796295166,
        -1.0,
        -0.9999848008155823,
        -1.0
      ],
      "type": "VEC4"
    },
    {
      "bufferView": 1,
      "byteOffset": 11608,
      "componentType": 5126,
      "count": 29284,
      "max": [
        0.9926750063896179,
        0.9926310181617737
      ],
      "min": [
        0.006684000138193369,
        0.004596000071614981
      ],
      "type": "VEC2"
    },
    {
      "bufferView": 0,
      "byteOffset": 27048,
      "componentType": 5125,
      "count": 114198,
      "type": "SCALAR"
    },
    {
      "bufferView": 2,
      "byteOffset": 737640,
      "componentType": 5126,
      "count": 13646,
      "max": [
        -0.256413996219635,
        22.577312469482422,
        7.932992935180664
      ],
      "min": [
        -14.467564582824707,
        -0.09498699754476547,
        -5.370274066925049
      ],
      "type": "VEC3"
    },
    {
      "bufferView": 2,
      "byteOffset": 901392,
      "componentType": 5126,
      "count": 13646,
      "max": [
        0.9999420046806335,
        0.9999003410339355,
        0.9987363815307617
      ],
      "min": [
        -0.9998431205749512,
        -0.9999313354492188,
        -0.9999011158943176
      ],
      "type": "VEC3"
    },
    {
      "bufferView": 3,
      "byteOffset": 491760,
      "componentType": 5126,
      "count": 13646,
      "max": [
        0.9998131394386292,
        1.0,
        0.999937891960144,
        1.0
      ],
      "min": [
        -0.9999962449073792,
        -0.9999998807907104,
        -0.999558687210083,
        -1.0
      ],
      "type": "VEC4"
    },
    {
      "bufferView": 1,
      "byteOffset": 245880,
      "componentType": 5126,
      "count": 13646,
      "max": [
        0.9951140284538269,
        0.9974030256271362
      ],
      "min": [
        0.005900000222027302,
        0.005177000071853399
      ],
      "type": "VEC2"
    },
    {
      "bufferView": 0,
      "byteOffset": 483840,
      "componentType": 5125,
      "count": 46086,
      "type": "SCALAR"
    }
  ],
  "asset": {
    "extras": {
      "author": "nyancube (https://sketchfab.com/N01506)",
      "license": "CC-BY-4.0 (http://creativecommons.org/licenses/by/4.0/)",
      "source": "https://sketchfab.com/3d-models/terrarium-bots-nerdscribbles-bf9a19aae6914a2c866311887edc8b3e",
      "title": "Terrarium Bots (@nerdscribbles)"
    },
    "generator": "Sketchfab-12.68.0",
    "version": "2.0"
  },
  "bufferViews": [
    {
      "buffer": 0,
      "byteLength": 668184,
      "name": "floatBufferViews",
      "target": 34963
    },
    {
      "buffer": 0,
      "byteLength": 355048,
      "byteOffset": 668184,
      "byteStride": 8,
      "name": "floatBufferViews",
      "target": 34962
    },
    {
      "buffer": 0,
      "byteLength": 1065144,
      "byteOffset": 1023232,
      "byteStride": 12,
      "name": "floatBufferViews",
      "target": 34962
    },
    {
      "buffer": 0,
      "byteLength": 710096,
      "byteOffset": 2088376,
      "byteStride": 16,
      "name": "floatBufferViews",
      "target": 34962
    }
  ],
  "buffers": [
    {
      "byteLength": 2798472,
      "uri": "scene.bin"
    }
  ],
  "extensionsUsed": [
    "KHR_materials_transmission"
  ],
  "images": [
    {
      "uri": "textures/BOT1_baseColor.jpeg"
    },
    {
      "uri": "textures/BOT1_metallicRoughness.png"
    },
    {
      "uri": "textures/BOT1_emissive.jpeg"
    },
    {
      "uri": "textures/BOT1_normal.png"
    },
    {
      "uri": "textures/BOT2_baseColor.jpeg"
    },
    {
      "uri": "textures/BOT2_metallicRoughness.png"
    },
    {
      "uri": "textures/BOT2_emissive.jpeg"
    },
    {
      "uri": "textures/BOT2_normal.png"
    },
    {
      "uri": "textures/glass_baseColor.png"
    },
    {
      "uri": "textures/glass_metallicRoughness.png"
    },
    {
      "uri": "textures/glass_normal.png"
    },
    {
      "uri": "textures/glass_transmission.png"
    }
  ],
  "materials": [
    {
      "doubleSided": true,
      "emissiveFactor": [
        1.0,
        1.0,
        1.0
      ],
      "emissiveTexture": {
        "index": 2
      },
      "name": "BOT1",
      "normalTexture": {
        "index": 3
      },
      "occlusionTexture": {
        "index": 1
      },
      "pbrMetallicRoughness": {
        "baseColorTexture": {
          "index": 0
        },
        "metallicRoughnessTexture": {
          "index": 1
        }
      }
    },
    {
      "doubleSided": true,
      "emissiveFactor": [
        1.0,
        1.0,
        1.0
      ],
      "emissiveTexture": {
        "index": 6
      },
      "name": "BOT2",
      "normalTexture": {
        "index": 7
      },
      "occlusionTexture": {
        "index": 5
      },
      "pbrMetallicRoughness": {
        "baseColorTexture": {
          "index": 4
        },
        "metallicRoughnessTexture": {
          "index": 5
        }
      }
    },
    {
      "alphaMode": "BLEND",
      "doubleSided": true,
      "extensions": {
        "KHR_materials_transmission": {
          "transmissionFactor": 1.0,
          "transmissionTexture": {
            "index": 11
          }
        }
      },
      "name": "glass",
      "normalTexture": {
        "index": 10
      },
      "occlusionTexture": {
        "index": 9
      },
      "pbrMetallicRoughness": {
        "baseColorTexture": {
          "index": 8
        },
        "metallicRoughnessTexture": {
          "index": 9
        }
      }
    }
  ],
  "meshes": [
    {
      "name": "defaultMaterial",
      "primitives": [
        {
          "attributes": {
            "NORMAL": 1,
            "POSITION": 0,
            "TANGENT": 2,
            "TEXCOORD_0": 3
          },
          "indices": 4,
          "material": 2,
          "mode": 4
        }
      ]
    },
    {
      "name": "defaultMaterial",
      "primitives": [
        {
          "attributes": {
            "NORMAL": 6,
            "POSITION": 5,
            "TANGENT": 7,
            "TEXCOORD_0": 8
          },
          "indices": 9,
          "material": 1,
          "mode": 4
        }
      ]
    },
    {
      "name": "defaultMaterial",
      "primitives": [
        {
          "attributes": {
            "NORMAL": 11,
            "POSITION": 10,
            "TANGENT": 12,
            "TEXCOORD_0": 13
          },
          "indices": 14,
          "material": 0,
          "mode": 4
        }
      ]
    }
  ],
  "nodes": [
    {
      "children": [
        1
      ],
      "matrix": [
        1.0,
        0.0,
        0.0,
        0.0,
        0.0,
        2.220446049250313e-16,
        -1.0,
        0.0,
        0.0,
        1.0,
        2.220446049250313e-16,
        0.0,
        0.0,
        0.0,
        0.0,
        1.0
      ],
      "name": "Sketchfab_model"
    },
    {
      "children": [
        2,
        4,
        6
      ],
      "matrix": [
        1.0,
        0.0,
        0.0,
        0.0,
        0.0,
        -4.371139006309477e-08,
        0.999999999999999,
        0.0,
        0.0,
        -0.999999999999999,
        -4.371139006309477e-08,
        0.0,
        0.0,
        0.0,
        0.0,
        1.0
      ],
      "name": "Collada visual scene group"
    },
    {
      "children": [
        3
      ],
      "name": "Glass"
    },
    {
      "mesh": 0,
      "name": "defaultMaterial"
    },
    {
      "children": [
        5
      ],
      "name": "Bot2"
    },
    {
      "mesh": 1,
      "name": "defaultMaterial"
    },
    {
      "children": [
        7
      ],
      "name": "Bot1"
    },
    {
      "mesh": 2,
      "name": "defaultMaterial"
    }
  ],
  "samplers": [
    {
      "magFilter": 9729,
      "minFilter": 9987,
      "wrapS": 10497,
      "wrapT": 10497
    }
  ],
  "scene": 0,
  "scenes": [
    {
      "name": "Sketchfab_Scene",
      "nodes": [
        0
      ]
    }
  ],
  "textures": [
    {
      "sampler": 0,
      "source": 0
    },
    {
      "sampler": 0,
      "source": 1
    },
    {
      "sampler": 0,
      "source": 2
    },
    {
      "sampler": 0,
      "source": 3
    },
    {
      "sampler": 0,
      "source": 4
    },
    {
      "sampler": 0,
      "source": 5
    },
    {
      "sampler": 0,
      "source": 6
    },
    {
      "sampler": 0,
      "source": 7
    },
    {
      "sampler": 0,
      "source": 8
    },
    {
      "sampler": 0,
      "source": 9
    },
    {
      "sampler": 0,
      "source": 10
    },
    {
      "sampler": 0,
      "source": 11
    }
  ]
}
